<svg xmlns="http://www.w3.org/2000/svg" width="200" height="50" viewBox="0 0 200 50"><rect width="100%" height="100%" fill="#DDDDDD"/><path fill="#999999" d="M57.89 31.16h4.64q.5 0 .79.29.29.28.29.74v1.85h-12.4v-1.03q0-.31.14-.65.13-.34.41-.62l5.49-5.5q.69-.7 1.23-1.34.55-.64.91-1.26.36-.63.56-1.27.19-.64.19-1.36 0-.65-.19-1.14-.19-.49-.53-.83-.34-.34-.82-.51-.49-.17-1.09-.17-.55 0-1.01.16-.47.16-.84.44-.36.28-.61.65-.25.38-.37.83-.22.57-.55.76-.34.19-.98.09L51.53 21q.18-1.3.72-2.28.54-.98 1.35-1.64.8-.65 1.85-.98 1.04-.34 2.24-.34 1.25 0 2.29.37 1.03.37 1.77 1.05.74.67 1.15 1.62.41.95.41 2.11 0 1-.29 1.85-.29.85-.79 1.63-.49.77-1.15 1.5-.67.72-1.39 1.47l-4.08 4.17q.59-.18 1.17-.27.58-.1 1.11-.1ZM78.64 25q0 2.36-.51 4.11-.5 1.74-1.4 2.88-.89 1.14-2.11 1.69-1.22.56-2.63.56t-2.62-.56q-1.21-.55-2.09-1.69-.89-1.14-1.39-2.88-.5-1.75-.5-4.11 0-2.37.5-4.11.5-1.74 1.39-2.88.88-1.13 2.09-1.69t2.62-.56q1.41 0 2.63.56t2.11 1.69q.9 1.14 1.4 2.88.51 1.74.51 4.11Zm-3.19 0q0-1.96-.29-3.25-.28-1.29-.76-2.05-.49-.76-1.11-1.07-.63-.3-1.3-.3-.66 0-1.28.3-.62.31-1.1 1.07-.47.76-.75 2.05-.28 1.29-.28 3.25t.28 3.25q.28 1.29.75 2.05.48.76 1.1 1.07.62.31 1.28.31.67 0 1.3-.31.62-.31 1.11-1.07.48-.76.76-2.05.29-1.29.29-3.25Zm17.69 0q0 2.36-.51 4.11-.5 1.74-1.4 2.88-.89 1.14-2.11 1.69-1.22.56-2.63.56t-2.62-.56q-1.21-.55-2.09-1.69-.89-1.14-1.39-2.88-.5-1.75-.5-4.11 0-2.37.5-4.11.5-1.74 1.39-2.88.88-1.13 2.09-1.69t2.62-.56q1.41 0 2.63.56t2.11 1.69q.9 1.14 1.4 2.88.51 1.74.51 4.11Zm-3.19 0q0-1.96-.29-3.25-.28-1.29-.76-2.05-.49-.76-1.11-1.07-.63-.3-1.3-.3-.66 0-1.28.3-.62.31-1.1 1.07-.47.76-.75 2.05-.28 1.29-.28 3.25t.28 3.25q.28 1.29.75 2.05.48.76 1.1 1.07.62.31 1.28.31.67 0 1.3-.31.62-.31 1.11-1.07.48-.76.76-2.05.29-1.29.29-3.25Zm23.04 4.9-1.64 1.61-4.24-4.23-4.27 4.26-1.64-1.61 4.28-4.29-4.08-4.08 1.63-1.62 4.07 4.07 4.05-4.05 1.65 1.63-4.06 4.06 4.25 4.25Zm13.14-11.14-.64 3.77q.6-.13 1.15-.18.55-.06 1.06-.06 1.43 0 2.51.42 1.09.43 1.83 1.18t1.11 1.76q.38 1 .38 2.16 0 1.44-.51 2.63t-1.41 2.03q-.9.84-2.13 1.31-1.23.46-2.68.46-.85 0-1.61-.17-.76-.18-1.43-.47-.67-.3-1.24-.68-.57-.38-1.02-.81l.95-1.31q.3-.42.79-.42.31 0 .64.2.32.2.74.43.42.24.99.44.57.2 1.37.2.85 0 1.5-.27.65-.28 1.08-.77.43-.5.65-1.18.22-.68.22-1.48 0-1.47-.86-2.3-.86-.83-2.53-.83-1.29 0-2.64.47l-1.92-.55 1.5-8.77h8.92v1.31q0 .66-.41 1.07-.41.41-1.4.41h-4.96ZM148.79 25q0 2.36-.51 4.11-.5 1.74-1.4 2.88-.89 1.14-2.11 1.69-1.22.56-2.63.56t-2.62-.56q-1.21-.55-2.09-1.69-.89-1.14-1.39-2.88-.5-1.75-.5-4.11 0-2.37.5-4.11.5-1.74 1.39-2.88.88-1.13 2.09-1.69t2.62-.56q1.41 0 2.63.56t2.11 1.69q.9 1.14 1.4 2.88.51 1.74.51 4.11Zm-3.19 0q0-1.96-.29-3.25-.28-1.29-.76-2.05-.49-.76-1.11-1.07-.63-.3-1.3-.3-.66 0-1.28.3-.62.31-1.1 1.07-.47.76-.75 2.05-.28 1.29-.28 3.25t.28 3.25q.28 1.29.75 2.05.48.76 1.1 1.07.62.31 1.28.31.67 0 1.3-.31.62-.31 1.11-1.07.48-.76.76-2.05.29-1.29.29-3.25Z"/></svg>