<svg version="1.1" xmlns="http://www.w3.org/2000/svg" viewBox="0 0 427.12017822265625 547.1996459960938" width="854.2403564453125" height="1094.3992919921875">
  <!-- svg-source:excalidraw -->
  
  <defs>
    <style class="style-fonts">
      @font-face {
        font-family: "Virgil";
        src: url("https://excalidraw.com/Virgil.woff2");
      }
      @font-face {
        font-family: "Cascadia";
        src: url("https://excalidraw.com/Cascadia.woff2");
      }
      @font-face {
        font-family: "Assistant";
        src: url("https://excalidraw.com/Assistant-Regular.woff2");
      }
    </style>
    
  </defs>
  <g stroke-linecap="round" transform="translate(10 10) rotate(0 203.56008911132812 263.5998229980469)"><path d="M32 0 C120.85 5.81, 211.37 3.85, 375.12 0 M32 0 C151.45 0.93, 268.92 2.11, 375.12 0 M375.12 0 C400.27 -3.38, 407.19 11.29, 407.12 32 M375.12 0 C396.77 -1.69, 409.02 6.57, 407.12 32 M407.12 32 C407.07 171.85, 407.45 309.82, 407.12 495.2 M407.12 32 C404.34 187.35, 403.55 340.02, 407.12 495.2 M407.12 495.2 C410.34 514.33, 400.2 528.39, 375.12 527.2 M407.12 495.2 C407.07 517.72, 399.03 524.73, 375.12 527.2 M375.12 527.2 C285.17 529.3, 198.89 528.62, 32 527.2 M375.12 527.2 C295.27 526.14, 214.92 526.17, 32 527.2 M32 527.2 C13.02 525.36, -2.05 518.94, 0 495.2 M32 527.2 C7.24 524.27, -3.04 516.58, 0 495.2 M0 495.2 C2.8 346.38, 1.52 200.18, 0 32 M0 495.2 C-3.21 354.53, -2.66 212.88, 0 32 M0 32 C-1.78 11.27, 6.7 1.43, 32 0 M0 32 C2.2 13.53, 9.87 2.84, 32 0" stroke="#1e1e1e" stroke-width="2" fill="none"></path></g><g stroke-linecap="round" transform="translate(27.326171875 26.14178466796875) rotate(0 186.68692016601562 25.343276977539062)"><path d="M12.67 0 C145.6 -3.14, 280.98 -3.75, 360.7 0 M12.67 0 C85.96 -4.32, 161.65 -4.25, 360.7 0 M360.7 0 C367.68 1.65, 369.81 4.14, 373.37 12.67 M360.7 0 C370.03 -2.84, 371.2 8.73, 373.37 12.67 M373.37 12.67 C371.16 22.4, 374.26 30.45, 373.37 38.01 M373.37 12.67 C371.79 20.24, 373.49 24.04, 373.37 38.01 M373.37 38.01 C374.41 48.7, 367 48.9, 360.7 50.69 M373.37 38.01 C375.46 47.61, 365.06 52.36, 360.7 50.69 M360.7 50.69 C270.57 47.24, 179.63 47.03, 12.67 50.69 M360.7 50.69 C254.25 52.69, 149.78 52.38, 12.67 50.69 M12.67 50.69 C1.67 48.04, 0.04 47.21, 0 38.01 M12.67 50.69 C1.68 47.49, 1.1 43.37, 0 38.01 M0 38.01 C2.35 35.29, -2.91 28.11, 0 12.67 M0 38.01 C0.09 28.75, 0.5 24.41, 0 12.67 M0 12.67 C2.49 3.53, 6.69 2.43, 12.67 0 M0 12.67 C-4.37 4.76, 7 -2.46, 12.67 0" stroke="#1e1e1e" stroke-width="2" fill="none"></path></g><g stroke-linecap="round" transform="translate(33.23443603515625 296.87738037109375) rotate(0 181.3548583984375 108.32000732421875)"><path d="M32 0 C118.8 3.35, 198.35 3.72, 330.71 0 M32 0 C143.33 2.63, 253.35 2.1, 330.71 0 M330.71 0 C353.75 0.95, 364.77 13.59, 362.71 32 M330.71 0 C355.92 2.39, 358.53 10.62, 362.71 32 M362.71 32 C365.27 76.46, 367.37 117.87, 362.71 184.64 M362.71 32 C361.11 85.58, 360.93 140.96, 362.71 184.64 M362.71 184.64 C363.1 208.53, 352.74 215.63, 330.71 216.64 M362.71 184.64 C363.53 206.88, 355.06 217.11, 330.71 216.64 M330.71 216.64 C264.43 214.57, 194.02 217.68, 32 216.64 M330.71 216.64 C219 218.24, 107.88 220.58, 32 216.64 M32 216.64 C12.07 217.86, 0.52 202.04, 0 184.64 M32 216.64 C11.73 216.35, -2.3 208.16, 0 184.64 M0 184.64 C-2.47 136.9, 2.56 86.81, 0 32 M0 184.64 C-0.38 151, -2.63 120.8, 0 32 M0 32 C0.11 7.99, 10.85 -1.37, 32 0 M0 32 C-3.25 6.41, 12.33 -0.7, 32 0" stroke="#1e1e1e" stroke-width="2" fill="none"></path></g><g transform="translate(49.671142578125 314.259521484375) rotate(0 93.55193328857422 10)"><text x="0" y="0" font-family="Virgil, Segoe UI Emoji" font-size="16px" fill="#1e1e1e" text-anchor="start" style="white-space: pre;" direction="ltr" dominant-baseline="text-before-edge">Description Text Here...</text></g><g stroke-linecap="round" transform="translate(347.32342529296875 11.44342041015625) rotate(0 33.8687744140625 45)"><path d="M42.5 11.5 C50.79 16.96, 50.82 21.59, 59.24 34.5 C72.68 43.34, 70.71 50.01, 59.24 57.5 C55.71 58.39, 51.47 63.43, 42.5 78.5 C30.43 85.13, 28.59 93.27, 25.5 78.5 C19.26 72.39, 18.71 67.08, 8.5 57.5 C2.2 50.26, 2.92 47.04, 8.5 34.5 C12.16 26.79, 21.76 17.86, 25.5 11.5 C29.61 5.54, 37.94 4.27, 42.5 11.5" stroke="none" stroke-width="0" fill="#ffc9c9"></path><path d="M42.5 11.5 C49.06 17.42, 50.3 22.03, 59.24 34.5 M42.5 11.5 C46.44 19.36, 51.89 26.89, 59.24 34.5 M59.24 34.5 C65.52 43.09, 67.92 43.32, 59.24 57.5 M59.24 34.5 C70.72 45.34, 66.74 48.09, 59.24 57.5 M59.24 57.5 C57.62 59.27, 50.52 68.99, 42.5 78.5 M59.24 57.5 C56.63 63.64, 53.79 65.89, 42.5 78.5 M42.5 78.5 C35.22 86.38, 31.11 86.45, 25.5 78.5 M42.5 78.5 C31.19 94.05, 32.43 90.48, 25.5 78.5 M25.5 78.5 C20.42 72.85, 15.31 67.62, 8.5 57.5 M25.5 78.5 C21.68 73.31, 19.53 68.53, 8.5 57.5 M8.5 57.5 C-0.78 49.77, 0.72 46.62, 8.5 34.5 M8.5 57.5 C-2.69 43, 2.07 45.53, 8.5 34.5 M8.5 34.5 C13.51 28.73, 17.7 15.23, 25.5 11.5 M8.5 34.5 C12.93 25.02, 21.81 18.46, 25.5 11.5 M25.5 11.5 C35.58 2.01, 36.61 2.15, 42.5 11.5 M25.5 11.5 C33.43 4.27, 35.73 1.27, 42.5 11.5" stroke="#1e1e1e" stroke-width="2" fill="none"></path></g><g transform="translate(370.09981536865234 38.94342041015625) rotate(0 11.157997131347656 17.5)"><text x="11.157997131347656" y="0" font-family="Virgil, Segoe UI Emoji" font-size="28px" fill="#1e1e1e" text-anchor="middle" style="white-space: pre;" direction="ltr" dominant-baseline="text-before-edge">#</text></g><g transform="translate(36.826171875 33.52044677734375) rotate(0 120.3719482421875 17.5)"><text x="0" y="0" font-family="Virgil, Segoe UI Emoji" font-size="28px" fill="#1e1e1e" text-anchor="start" style="white-space: pre;" direction="ltr" dominant-baseline="text-before-edge">Achievement Title</text></g><g stroke-linecap="round" transform="translate(30.94488525390625 104.06521606445312) rotate(0 181.4549560546875 90.27806091308594)"><path d="M7.86 8.16 C7.86 8.16, 7.86 8.16, 7.86 8.16 M7.86 8.16 C7.86 8.16, 7.86 8.16, 7.86 8.16 M1.43 27.75 C9.21 21.2, 12.65 13.15, 24.4 1.33 M1.43 27.75 C6.14 19.47, 15.1 14.17, 24.4 1.33 M0.91 40.54 C9.9 25.11, 21.36 16.49, 36.34 -0.21 M0.91 40.54 C13.51 25.63, 29.12 9.88, 36.34 -0.21 M1.04 52.58 C18.33 35.65, 29.22 21.38, 46.97 -0.25 M1.04 52.58 C13.81 35.67, 25.84 23.62, 46.97 -0.25 M1.18 64.62 C14.07 50.57, 23.78 36.74, 57.6 -0.28 M1.18 64.62 C18.51 41.28, 40.87 18.34, 57.6 -0.28 M1.31 76.67 C27.84 45.79, 49.03 19.94, 67.57 0.44 M1.31 76.67 C17.43 59.21, 28.25 45.62, 67.57 0.44 M1.44 88.71 C32.22 52.87, 60.75 25.04, 78.2 0.41 M1.44 88.71 C26.63 63.31, 45.74 35.51, 78.2 0.41 M0.92 101.5 C18.85 77.27, 37.46 61.45, 88.83 0.37 M0.92 101.5 C27.43 72.03, 55.82 40.2, 88.83 0.37 M1.05 113.54 C38.27 69.96, 80.24 25.23, 99.46 0.34 M1.05 113.54 C26.44 87.88, 45.55 64.02, 99.46 0.34 M1.19 125.58 C40.86 83.79, 80.25 42.28, 110.09 0.3 M1.19 125.58 C23.31 93.38, 50.89 66.76, 110.09 0.3 M1.32 137.62 C35.42 98.73, 74.34 55.61, 120.72 0.27 M1.32 137.62 C36.81 99.44, 71.63 56.42, 120.72 0.27 M1.45 149.67 C42.2 105.15, 77.59 57.34, 131.35 0.23 M1.45 149.67 C34.19 116.71, 64.11 82, 131.35 0.23 M2.24 160.95 C28.39 130.42, 55.06 92.14, 141.98 0.2 M2.24 160.95 C50.03 111.21, 94.19 58.84, 141.98 0.2 M5.66 169.22 C54.95 115.55, 100.91 63.38, 152.61 0.16 M5.66 169.22 C65.75 102.89, 124.72 35.95, 152.61 0.16 M11.04 175.22 C51.21 133.05, 93.08 85.59, 163.24 0.13 M11.04 175.22 C52.22 129.34, 90.52 86.33, 163.24 0.13 M19.7 177.45 C58.97 131.16, 97.9 89.15, 173.87 0.09 M19.7 177.45 C69.86 122.35, 120.99 63.46, 173.87 0.09 M28.36 179.68 C77.38 126.52, 122.84 70.67, 184.5 0.06 M28.36 179.68 C71.34 129.01, 116.35 75.6, 184.5 0.06 M37.68 181.16 C95.3 114.48, 155.6 38.99, 195.13 0.03 M37.68 181.16 C87.92 122.56, 139.76 66.36, 195.13 0.03 M48.31 181.12 C101.85 119.83, 159.81 63.47, 205.76 -0.01 M48.31 181.12 C104.71 112.25, 161.05 46.63, 205.76 -0.01 M58.94 181.09 C102.62 126.38, 144.32 73.26, 216.39 -0.04 M58.94 181.09 C115.54 116.07, 173.1 46.93, 216.39 -0.04 M69.57 181.05 C127.54 122.09, 175.81 59.15, 227.02 -0.08 M69.57 181.05 C112.71 128.15, 157.61 77.61, 227.02 -0.08 M80.2 181.02 C141.78 109.72, 200.66 43.29, 237.65 -0.11 M80.2 181.02 C135.88 113.39, 192.84 49.02, 237.65 -0.11 M90.83 180.98 C120.42 141.97, 155.29 104, 248.28 -0.15 M90.83 180.98 C152.09 111.59, 214.45 42.61, 248.28 -0.15 M101.46 180.95 C155.16 124.27, 207.61 63.59, 258.91 -0.18 M101.46 180.95 C144.44 128.55, 192.32 72.04, 258.91 -0.18 M112.09 180.91 C151.37 141.6, 186.17 104.25, 269.54 -0.22 M112.09 180.91 C153.67 137.28, 192.25 89.83, 269.54 -0.22 M122.72 180.88 C160.43 132.12, 198.16 92.24, 280.17 -0.25 M122.72 180.88 C161.69 137.81, 200.12 91.71, 280.17 -0.25 M133.35 180.85 C166.46 142.5, 204.51 109.81, 290.8 -0.28 M133.35 180.85 C169.39 144.05, 203.26 105.52, 290.8 -0.28 M143.98 180.81 C198.18 126.15, 246.39 72.06, 300.78 0.44 M143.98 180.81 C202.57 108.57, 265.95 35.97, 300.78 0.44 M154.61 180.78 C202.87 118.11, 256.19 62.14, 311.41 0.4 M154.61 180.78 C193.17 135.54, 229.78 92.32, 311.41 0.4 M165.24 180.74 C220.81 122.01, 274.12 54.11, 322.04 0.37 M165.24 180.74 C203.34 141.47, 239.35 97.38, 322.04 0.37 M175.87 180.71 C229.77 122.93, 279.38 60.56, 332.67 0.33 M175.87 180.71 C220.58 123.4, 267.34 69.22, 332.67 0.33 M186.5 180.67 C222.94 135, 262.88 90.63, 341.33 2.56 M186.5 180.67 C235.28 121.8, 287.47 64.83, 341.33 2.56 M197.13 180.64 C243.08 129.4, 282.81 77.07, 349.99 4.79 M197.13 180.64 C245.29 122.9, 292.43 69.71, 349.99 4.79 M207.11 181.36 C259.01 128.39, 307.73 70.59, 356.03 10.04 M207.11 181.36 C255.97 122.55, 303.73 62.71, 356.03 10.04 M217.74 181.32 C247.06 139.84, 281.22 103.9, 360.1 17.55 M217.74 181.32 C256.18 137.4, 289.46 95.61, 360.1 17.55 M228.37 181.29 C282.5 117.3, 332.24 58.77, 362.2 27.33 M228.37 181.29 C263.25 143.99, 294.69 106.51, 362.2 27.33 M239 181.26 C283.86 127.43, 321.58 86.37, 362.99 38.62 M239 181.26 C271.58 148.28, 300.89 114.24, 362.99 38.62 M249.63 181.22 C274.85 142.52, 312.04 106.09, 363.12 50.66 M249.63 181.22 C284.08 137.29, 323.56 95.45, 363.12 50.66 M260.26 181.19 C302.6 138.95, 337.11 91.08, 363.26 62.7 M260.26 181.19 C283.2 155.82, 304.45 130.13, 363.26 62.7 M270.89 181.15 C289.22 158.21, 316.93 129.07, 363.39 74.74 M270.89 181.15 C303.94 147.25, 333.3 112.57, 363.39 74.74 M281.52 181.12 C300.28 161.8, 315.86 140.25, 363.52 86.78 M281.52 181.12 C310.53 147.98, 338.16 117.9, 363.52 86.78 M292.15 181.08 C314.61 156.05, 336.56 129.23, 363 99.57 M292.15 181.08 C312.1 157.6, 335.61 133.16, 363 99.57 M302.78 181.05 C322.1 154.43, 339.59 134.92, 363.13 111.61 M302.78 181.05 C319.96 160.55, 340.42 136.53, 363.13 111.61 M313.41 181.01 C333.3 160.56, 349.68 136.06, 363.27 123.66 M313.41 181.01 C325.39 167.4, 338.25 152.99, 363.27 123.66 M324.04 180.98 C332.75 169.73, 342.75 156.01, 363.4 135.7 M324.04 180.98 C335.59 170.26, 344.25 155.21, 363.4 135.7 M335.98 179.44 C343.44 167.68, 357.84 160.33, 363.53 147.74 M335.98 179.44 C346.31 169.26, 355.76 154.6, 363.53 147.74 M349.23 176.38 C353.1 170.79, 353.91 173.69, 360.39 163.55 M349.23 176.38 C352.7 170.7, 357.4 166.4, 360.39 163.55 M12.55 176.1 C12.55 176.1, 12.55 176.1, 12.55 176.1 M12.55 176.1 C12.55 176.1, 12.55 176.1, 12.55 176.1 M29.12 179.9 C21.19 174.54, 18.3 169.07, 1.19 155.63 M29.12 179.9 C21.35 171.69, 11.73 164.94, 1.19 155.63 M36.63 175.83 C19.02 162.35, 6.09 149.98, 1.16 145 M36.63 175.83 C21.29 163.25, 9.7 148.58, 1.16 145 M48.67 175.7 C30.73 162.67, 11.4 140.66, 1.12 134.37 M48.67 175.7 C37.55 165.04, 21.08 153.21, 1.12 134.37 M60.71 175.56 C36.56 158.91, 19.95 135.1, 1.09 123.74 M60.71 175.56 C42.15 158.33, 23.69 141.59, 1.09 123.74 M72.75 175.43 C51.83 159.97, 30.56 141.42, 1.05 113.11 M72.75 175.43 C53.23 155.32, 28.19 136.42, 1.05 113.11 M84.79 175.3 C67.67 157.16, 45.9 136.75, 1.02 102.48 M84.79 175.3 C57.42 148, 29.63 124.43, 1.02 102.48 M97.59 175.82 C65.64 148.16, 41.21 130.92, 0.99 91.85 M97.59 175.82 C73.76 153.64, 54.83 135.23, 0.99 91.85 M109.63 175.69 C66.44 137.53, 30.76 104.49, 0.95 81.22 M109.63 175.69 C81.51 150.85, 59.78 132.09, 0.95 81.22 M121.67 175.56 C78.96 141.86, 37.72 103.98, 0.92 70.59 M121.67 175.56 C74.48 133.71, 25.72 92.3, 0.92 70.59 M133.71 175.42 C88.88 129.66, 34.45 94.95, 0.88 59.96 M133.71 175.42 C82.52 126.65, 27.26 80.15, 0.88 59.96 M145.75 175.29 C98.1 132.09, 48.89 88.79, 0.85 49.33 M145.75 175.29 C96.22 128.75, 48 87.35, 0.85 49.33 M158.55 175.81 C109.89 127.91, 59.07 87.25, 0.81 38.7 M158.55 175.81 C109.68 131.99, 59.98 88.62, 0.81 38.7 M170.59 175.68 C124.46 128.49, 73.04 90.27, 0.78 28.07 M170.59 175.68 C115.85 128.91, 58.46 77.45, 0.78 28.07 M182.63 175.55 C137.85 141.64, 94.66 101.33, 3.76 20.06 M182.63 175.55 C126.61 131.38, 76.21 83.44, 3.76 20.06 M194.67 175.41 C143.65 132.54, 95.94 84.33, 7.5 12.71 M194.67 175.41 C122.85 111.3, 52.62 48.8, 7.5 12.71 M206.71 175.28 C148.78 125.74, 90.39 71.09, 10.49 4.7 M206.71 175.28 C144.24 121.48, 84.19 65.85, 10.49 4.7 M219.51 175.8 C167.58 131.82, 116.41 85.86, 18.75 1.29 M219.51 175.8 C168.34 130.5, 116.32 84.29, 18.75 1.29 M231.55 175.67 C187.13 137.53, 149.04 102.16, 29.28 -0.15 M231.55 175.67 C187.29 135.33, 146.34 98.88, 29.28 -0.15 M243.59 175.54 C179.94 120.15, 111.51 63.94, 36.04 -4.88 M243.59 175.54 C181.02 124.16, 117.64 68.28, 36.04 -4.88 M255.63 175.4 C178.02 110.77, 104.3 43.48, 48.08 -5.01 M255.63 175.4 C200.91 130.38, 148.55 86.08, 48.08 -5.01 M267.67 175.27 C219.46 131.15, 165.85 86.21, 60.88 -4.49 M267.67 175.27 C223.19 142.59, 183.31 103.26, 60.88 -4.49 M280.47 175.79 C223.99 124, 169.25 75.09, 72.92 -4.62 M280.47 175.79 C201.76 106.75, 122.48 38.49, 72.92 -4.62 M292.51 175.66 C229.83 116.18, 160.86 61.92, 84.96 -4.76 M292.51 175.66 C212.58 107.63, 134.54 38.26, 84.96 -4.76 M304.55 175.53 C239.3 117.73, 180.12 66.01, 97 -4.89 M304.55 175.53 C224.03 106.53, 145.34 39.41, 97 -4.89 M316.59 175.39 C261.73 127.62, 201.43 79.08, 109.04 -5.02 M316.59 175.39 C273.14 134.41, 226.47 92.81, 109.04 -5.02 M332.4 178.54 C289.66 143.03, 247.25 102.08, 121.84 -4.5 M332.4 178.54 C273.48 124.3, 215.2 74.55, 121.84 -4.5 M342.18 176.44 C298.56 137.52, 253.41 100.29, 133.88 -4.63 M342.18 176.44 C284.08 127.39, 224.72 74.75, 133.88 -4.63 M351.96 174.34 C288.21 122.6, 229.15 63.33, 145.92 -4.77 M351.96 174.34 C272.39 107.05, 193.49 38.31, 145.92 -4.77 M357.96 168.96 C302.54 119.84, 241.15 72.15, 157.96 -4.9 M357.96 168.96 C312.31 128.74, 262.65 86.41, 157.96 -4.9 M363.21 162.92 C299.97 112.79, 232.61 56.44, 170 -5.03 M363.21 162.92 C319.47 123.63, 273.58 82.68, 170 -5.03 M364.68 153.6 C305.06 97.34, 242.39 40.66, 182.8 -4.51 M364.68 153.6 C299.91 96.04, 236.28 41.71, 182.8 -4.51 M366.16 144.28 C321.92 113.73, 285.14 75.67, 194.84 -4.64 M366.16 144.28 C327.1 109.04, 289.09 75.37, 194.84 -4.64 M366.12 133.65 C309.43 88.19, 253.42 35.21, 206.88 -4.78 M366.12 133.65 C329.37 104.91, 297.7 75.18, 206.88 -4.78 M366.09 123.02 C316.53 78.62, 267.65 37.06, 218.92 -4.91 M366.09 123.02 C335.06 91.57, 303.49 65.8, 218.92 -4.91 M366.05 112.39 C320.81 67.84, 270.14 24.84, 230.96 -5.04 M366.05 112.39 C315.32 65.16, 263.83 20.73, 230.96 -5.04 M366.77 102.42 C317.6 65.02, 276.17 22.27, 243.76 -4.52 M366.77 102.42 C326.09 68.83, 284.86 35.79, 243.76 -4.52 M366.74 91.79 C330.47 60.82, 296.28 31.33, 255.8 -4.65 M366.74 91.79 C325.58 54.98, 282.62 18.83, 255.8 -4.65 M366.7 81.16 C346.36 62.76, 316.22 40.16, 267.84 -4.79 M366.7 81.16 C341.8 59.54, 312.12 34.09, 267.84 -4.79 M366.67 70.53 C339.15 51.31, 320.47 27.26, 279.88 -4.92 M366.67 70.53 C348.32 51.67, 326.62 36.2, 279.88 -4.92 M366.64 59.9 C347.23 41.98, 322.87 20.19, 291.92 -5.05 M366.64 59.9 C345.37 40.37, 322.37 19.61, 291.92 -5.05 M366.6 49.27 C338.29 27.05, 316.77 8.29, 304.72 -4.53 M366.6 49.27 C346.27 31.26, 320.5 10.32, 304.72 -4.53 M366.57 38.64 C355.53 25.29, 339.79 17.91, 316.76 -4.66 M366.57 38.64 C353.2 26.03, 338.09 16.46, 316.76 -4.66 M366.53 28.01 C361.24 21.81, 346.52 9.08, 332.57 -1.52 M366.53 28.01 C354.37 19.1, 344.16 5.44, 332.57 -1.52" stroke="#a5d8ff" stroke-width="1" fill="none"></path><path d="M32 0 C137.01 -4.69, 243.88 -2.3, 330.91 0 M32 0 C97.32 -3.64, 165.32 -4.35, 330.91 0 M330.91 0 C352.65 -1.02, 365.34 11.98, 362.91 32 M330.91 0 C355.75 2.5, 360.71 11.57, 362.91 32 M362.91 32 C366.26 76.27, 362.93 112.75, 362.91 148.56 M362.91 32 C363.4 76.2, 360.42 120.85, 362.91 148.56 M362.91 148.56 C362.83 172.99, 349.49 180.44, 330.91 180.56 M362.91 148.56 C364.17 173.09, 349.9 185.11, 330.91 180.56 M330.91 180.56 C269.94 184.79, 211.81 185.13, 32 180.56 M330.91 180.56 C261.12 179.69, 192.97 180.25, 32 180.56 M32 180.56 C9.77 178.7, 3.26 173.74, 0 148.56 M32 180.56 C8.86 178.92, 0.02 166.67, 0 148.56 M0 148.56 C-0.93 112.05, 5.23 80.23, 0 32 M0 148.56 C-3.97 116.68, -0.6 88.03, 0 32 M0 32 C2.55 9.36, 9.58 0.58, 32 0 M0 32 C0.11 7.17, 11.41 -0.97, 32 0" stroke="#1e1e1e" stroke-width="2" fill="none"></path></g><g stroke-linecap="round" transform="translate(352.73431396484375 476.3966064453125) rotate(0 29.1942138671875 27.00927734375)"><path d="M33.31 1.8 C39.38 2.72, 47.98 4.98, 51.98 9.48 C55.98 13.99, 57.66 23.19, 57.31 28.83 C56.95 34.46, 53.58 39.5, 49.84 43.3 C46.09 47.11, 40.7 50.24, 34.83 51.66 C28.97 53.08, 19.98 54.59, 14.63 51.83 C9.28 49.06, 4.93 40.81, 2.71 35.06 C0.49 29.31, -0.99 22.45, 1.29 17.34 C3.57 12.23, 7.01 4.59, 16.39 4.41 C25.77 4.24, 51.31 9.9, 57.6 16.29 C63.89 22.69, 54.53 42.42, 54.12 42.79 M45.03 4.25 C50.32 6.88, 56.18 12.9, 58.36 17.8 C60.54 22.69, 60.59 28.71, 58.1 33.62 C55.61 38.52, 48.63 44.34, 43.42 47.22 C38.2 50.1, 32.78 51.15, 26.81 50.88 C20.84 50.61, 12.43 49.63, 7.59 45.6 C2.75 41.57, -2.04 32.85, -2.24 26.7 C-2.44 20.54, 1.64 13.07, 6.38 8.65 C11.11 4.23, 20.38 1.09, 26.17 0.19 C31.97 -0.72, 38.66 2.22, 41.14 3.21 C43.62 4.2, 40.89 5.59, 41.05 6.12" stroke="none" stroke-width="0" fill="#b2f2bb"></path><path d="M27.79 0.69 C33.69 -0.44, 40.8 -0.29, 45.64 3.06 C50.48 6.42, 55.11 14.92, 56.84 20.8 C58.57 26.68, 58.53 33.43, 56.03 38.34 C53.54 43.26, 47.45 47.76, 41.85 50.29 C36.25 52.82, 28.37 54.87, 22.44 53.54 C16.5 52.21, 10.06 47.12, 6.26 42.31 C2.47 37.5, -0.8 30.33, -0.32 24.69 C0.16 19.04, 1.61 11.62, 9.14 8.44 C16.68 5.25, 36.95 4.05, 44.88 5.56 C52.8 7.06, 56.6 17.05, 56.68 17.47 M28.48 -2.42 C34.65 -3.34, 44.03 1.65, 48.82 5.45 C53.6 9.26, 56.68 14.47, 57.2 20.42 C57.71 26.38, 54.84 35.66, 51.92 41.19 C48.99 46.72, 45.5 52.23, 39.64 53.6 C33.78 54.98, 22.99 52.08, 16.76 49.44 C10.53 46.8, 4.48 42.06, 2.25 37.78 C0.03 33.5, 1.65 28.59, 3.41 23.77 C5.17 18.94, 8.09 12.54, 12.81 8.8 C17.52 5.06, 28.86 3.1, 31.69 1.34 C34.52 -0.41, 29.64 -1.89, 29.77 -1.72" stroke="#1e1e1e" stroke-width="2" fill="none"></path></g><g stroke-linecap="round" transform="translate(23.281005859375 473.36297607421875) rotate(0 29.1942138671875 27.00927734375)"><path d="M35.68 0.98 C41.82 2.4, 50.83 7.83, 54.32 12.9 C57.82 17.96, 57.66 26.14, 56.66 31.39 C55.66 36.64, 52.22 40.31, 48.32 44.39 C44.42 48.47, 39.3 55.37, 33.26 55.84 C27.21 56.32, 17.26 51.02, 12.06 47.23 C6.85 43.43, 3.85 38.65, 2.05 33.09 C0.24 27.53, -1.41 18.98, 1.23 13.87 C3.87 8.76, 11.57 4.21, 17.9 2.44 C24.24 0.68, 34.61 2.72, 39.23 3.27 C43.84 3.82, 45.33 5.36, 45.61 5.76 M6.34 8.83 C10.72 5.15, 21.42 1.49, 27.78 0.81 C34.14 0.12, 39.4 1.98, 44.5 4.71 C49.61 7.44, 56.36 11.53, 58.42 17.2 C60.48 22.88, 59.62 32.77, 56.85 38.75 C54.08 44.72, 47.88 50.29, 41.82 53.07 C35.76 55.85, 26.65 57.01, 20.5 55.42 C14.34 53.84, 8.59 48.74, 4.9 43.57 C1.22 38.4, -1.94 30.7, -1.62 24.37 C-1.3 18.05, 4.78 8.61, 6.82 5.64 C8.87 2.67, 10.01 5.45, 10.64 6.56" stroke="none" stroke-width="0" fill="#ffec99"></path><path d="M6.28 7.56 C9.7 3.19, 18.81 -1.06, 25.16 -1.35 C31.5 -1.63, 38.95 2.25, 44.36 5.84 C49.78 9.44, 55.91 14.71, 57.67 20.22 C59.43 25.73, 57.74 33.9, 54.92 38.9 C52.1 43.9, 46.18 48.09, 40.75 50.21 C35.32 52.34, 28.04 52.91, 22.35 51.62 C16.65 50.33, 10.34 46.69, 6.57 42.46 C2.79 38.23, -2.21 33.31, -0.31 26.24 C1.59 19.17, 13.19 4.41, 17.95 0.04 C22.72 -4.34, 27.83 -0.5, 28.28 -0.02 M39.19 4.28 C44.7 7.2, 50.59 13.68, 53.46 18.56 C56.33 23.44, 57.99 28.6, 56.4 33.59 C54.81 38.57, 48.48 44.84, 43.91 48.45 C39.34 52.06, 35.31 55.23, 28.99 55.24 C22.67 55.25, 11.29 53.32, 6 48.53 C0.71 43.73, -2.4 32.35, -2.77 26.49 C-3.14 20.63, -0.79 17.45, 3.76 13.34 C8.31 9.23, 18.1 3.47, 24.53 1.83 C30.96 0.19, 39.73 3.17, 42.34 3.51 C44.95 3.84, 40.84 3.82, 40.21 3.86" stroke="#1e1e1e" stroke-width="2" fill="none"></path></g></svg>