<svg xmlns="http://www.w3.org/2000/svg" width="245" height="342" viewBox="0 0 245 342"><rect width="100%" height="100%" fill="#DDDDDD"/><path fill="#999999" d="M57.695 179.13h6.12q.66 0 1.05.38.38.37.38.98v2.44h-16.37v-1.35q0-.42.18-.87.17-.45.55-.82l7.24-7.26q.91-.92 1.63-1.76.72-.84 1.2-1.67.47-.82.73-1.67t.26-1.79q0-.86-.25-1.51t-.7-1.1q-.46-.45-1.09-.67-.64-.22-1.43-.22-.73 0-1.34.21-.62.2-1.1.57-.48.37-.81.87-.33.49-.49 1.09-.29.76-.73 1-.45.25-1.29.12l-2.14-.38q.24-1.72.95-3.01.71-1.3 1.78-2.16 1.06-.87 2.44-1.31 1.38-.43 2.96-.43 1.65 0 3.02.48 1.37.49 2.34 1.38.98.89 1.52 2.15.55 1.25.55 2.79 0 1.32-.39 2.44-.39 1.12-1.04 2.14-.65 1.03-1.53 1.98-.87.96-1.83 1.95l-5.38 5.49q.78-.23 1.55-.35.76-.13 1.46-.13Zm13.56-5.19h7.26v-7.81q0-1.1.15-2.44l-7.41 10.25Zm10.81 0h3v2.36q0 .33-.22.57-.21.24-.61.24h-2.17v5.82h-3.55v-5.82h-10.07q-.41 0-.72-.26-.32-.26-.4-.64l-.43-2.06 11.31-15.1h3.86v14.89Zm11.38-11.17-.84 4.96q.79-.16 1.52-.24.72-.07 1.4-.07 1.88 0 3.32.56 1.43.56 2.41 1.55.97.99 1.46 2.32.5 1.33.5 2.86 0 1.9-.67 3.47-.67 1.57-1.86 2.68-1.18 1.11-2.81 1.72-1.62.61-3.54.61-1.12 0-2.13-.23-1-.23-1.89-.62-.88-.38-1.63-.89-.75-.5-1.34-1.06l1.25-1.73q.4-.56 1.04-.56.41 0 .84.26t.98.58q.56.31 1.31.57.75.27 1.8.27 1.13 0 1.98-.36.86-.37 1.43-1.02t.86-1.55q.29-.9.29-1.96 0-1.94-1.13-3.04t-3.34-1.1q-1.7 0-3.49.63l-2.54-.73 1.98-11.58h11.78v1.73q0 .88-.54 1.42-.54.55-1.85.55h-6.55Zm36.98 14.7-2.16 2.13-5.6-5.6-5.64 5.63-2.16-2.13 5.64-5.66-5.38-5.38 2.15-2.14 5.38 5.38 5.34-5.35 2.18 2.15-5.36 5.36 5.61 5.61Zm13.73-11.37-2.15-.38q.25-1.72.96-3.01.71-1.3 1.77-2.16 1.07-.87 2.44-1.31 1.38-.43 2.97-.43 1.65 0 2.97.47 1.33.47 2.27 1.3.94.83 1.45 1.96.5 1.12.5 2.42 0 1.14-.26 2.01-.25.86-.73 1.51-.48.64-1.19 1.08-.71.45-1.6.75 2.15.67 3.2 2.06 1.06 1.39 1.06 3.48 0 1.78-.66 3.15-.66 1.37-1.78 2.3-1.13.94-2.6 1.42-1.48.47-3.13.47-1.8 0-3.13-.41-1.34-.41-2.33-1.22t-1.68-1.98q-.7-1.17-1.19-2.71l1.8-.74q.71-.3 1.32-.15.62.14.9.66.3.58.66 1.14.35.56.85 1 .49.44 1.16.71.67.27 1.59.27 1.04 0 1.82-.34.77-.33 1.29-.88.52-.54.78-1.21.25-.67.25-1.35 0-.85-.18-1.56-.18-.7-.76-1.19-.58-.5-1.66-.78t-2.89-.28v-2.9q1.5-.02 2.49-.28.99-.27 1.58-.74.58-.47.81-1.13.23-.66.23-1.45 0-1.68-.94-2.56-.94-.87-2.51-.87-.72 0-1.33.21-.61.2-1.1.57-.49.37-.82.87-.33.49-.49 1.09-.28.76-.74 1-.45.25-1.27.12Zm19.7 7.84h7.26v-7.81q0-1.1.15-2.44l-7.41 10.25Zm10.8 0h3.01v2.36q0 .33-.22.57-.21.24-.61.24h-2.18v5.82h-3.54v-5.82h-10.07q-.41 0-.72-.26-.32-.26-.4-.64l-.43-2.06 11.3-15.1h3.86v14.89Zm13.91 5.19h6.13q.66 0 1.04.38.39.37.39.98v2.44h-16.37v-1.35q0-.42.18-.87.17-.45.55-.82l7.24-7.26q.91-.92 1.63-1.76.72-.84 1.19-1.67.48-.82.74-1.67.25-.85.25-1.79 0-.86-.24-1.51-.25-.65-.7-1.1-.46-.45-1.09-.67-.64-.22-1.43-.22-.73 0-1.35.21-.61.2-1.09.57-.48.37-.81.87-.33.49-.5 1.09-.28.76-.72 1-.45.25-1.29.12l-2.14-.38q.24-1.72.95-3.01.71-1.3 1.78-2.16 1.06-.87 2.44-1.31 1.38-.43 2.96-.43 1.65 0 3.02.48 1.37.49 2.34 1.38.98.89 1.52 2.15.54 1.25.54 2.79 0 1.32-.38 2.44-.39 1.12-1.04 2.14-.65 1.03-1.53 1.98-.87.96-1.83 1.95l-5.38 5.49q.78-.23 1.54-.35.77-.13 1.46-.13Z"/></svg>