<svg xmlns="http://www.w3.org/2000/svg" width="734" height="1024" viewBox="0 0 734 1024"><rect width="100%" height="100%" fill="#DDDDDD"/><path fill="#999999" d="M149.68 480.91h42.96v4.6q0 2.07-.43 3.34-.43 1.26-.86 2.12l-23.57 48.51q-.73 1.5-2.06 2.56-1.33 1.05-3.57 1.05h-7.7l24.04-47.52q.82-1.46 1.61-2.68.8-1.23 1.79-2.35h-29.76q-.99 0-1.72-.73t-.73-1.72v-7.18Zm56.12 18.32-5.59-.99q.64-4.47 2.49-7.85 1.85-3.37 4.62-5.63 2.78-2.26 6.37-3.4 3.59-1.14 7.72-1.14 4.29 0 7.76 1.23 3.46 1.22 5.91 3.4 2.45 2.17 3.76 5.09 1.31 2.93 1.31 6.32 0 2.97-.66 5.23-.67 2.25-1.92 3.93-1.24 1.68-3.09 2.84-1.85 1.16-4.17 1.93 5.59 1.77 8.34 5.38t2.75 9.07q0 4.65-1.72 8.22-1.72 3.56-4.64 5.99-2.93 2.43-6.78 3.68t-8.15 1.25q-4.68 0-8.17-1.08-3.48-1.07-6.06-3.18-2.58-2.11-4.38-5.16-1.81-3.05-3.1-7.05l4.69-1.94q1.85-.77 3.46-.4 1.61.36 2.34 1.74.78 1.5 1.7 2.96.92 1.47 2.21 2.61 1.3 1.13 3.04 1.84 1.74.71 4.15.71 2.7 0 4.73-.88 2.02-.88 3.37-2.3 1.36-1.42 2.02-3.16.67-1.74.67-3.5 0-2.24-.47-4.07-.48-1.82-1.98-3.11-1.51-1.29-4.32-2.03-2.82-.73-7.55-.73v-7.56q3.91-.05 6.49-.74 2.58-.68 4.11-1.91 1.53-1.22 2.13-2.94.6-1.72.6-3.79 0-4.38-2.45-6.66-2.45-2.28-6.54-2.28-1.89 0-3.48.54-1.59.53-2.86 1.5-1.27.97-2.13 2.26-.86 1.29-1.29 2.84-.73 1.97-1.91 2.62-1.18.64-3.33.3Zm51.34 20.42h18.92v-20.33q0-2.89.38-6.37l-19.3 26.7Zm28.16 0h7.83v6.15q0 .86-.56 1.49-.56.62-1.59.62h-5.68v15.18h-9.24v-15.18h-26.23q-1.08 0-1.89-.67-.82-.66-1.04-1.65l-1.11-5.38 29.45-39.34h10.06v38.78Zm76.16 9.21-5.64 5.54-14.57-14.57-14.71 14.66-5.63-5.55 14.7-14.75-14.02-14.01 5.59-5.59 14.02 14.01 13.93-13.93 5.68 5.59-13.97 13.98 14.62 14.62Zm58.86 6.27h11.18v7.96h-34.4v-7.96h12.6v-36.24q0-2.15.13-4.43l-8.94 7.48q-.78.6-1.53.75-.75.15-1.42.02-.67-.13-1.18-.45-.52-.32-.78-.71l-3.35-4.6 18.96-16.12h8.73v54.3ZM484.61 512q0 8.13-1.74 14.13-1.74 5.99-4.82 9.91-3.07 3.91-7.27 5.82-4.19 1.92-9.05 1.92t-9.01-1.92q-4.15-1.91-7.2-5.82-3.05-3.92-4.77-9.91-1.72-6-1.72-14.13 0-8.17 1.72-14.15 1.72-5.97 4.77-9.89 3.05-3.91 7.2-5.82 4.15-1.92 9.01-1.92 4.86 0 9.05 1.92 4.2 1.91 7.27 5.82 3.08 3.92 4.82 9.89 1.74 5.98 1.74 14.15Zm-10.97 0q0-6.75-.99-11.18t-2.64-7.05q-1.66-2.62-3.81-3.68-2.15-1.05-4.47-1.05-2.28 0-4.41 1.05-2.12 1.06-3.76 3.68-1.63 2.62-2.6 7.05-.97 4.43-.97 11.18t.97 11.18q.97 4.43 2.6 7.05 1.64 2.63 3.76 3.68 2.13 1.05 4.41 1.05 2.32 0 4.47-1.05t3.81-3.68q1.65-2.62 2.64-7.05.99-4.43.99-11.18Zm39.35 21.2h15.95q1.72 0 2.73.97 1.01.96 1.01 2.56v6.36h-42.65v-3.53q0-1.07.45-2.25.45-1.19 1.44-2.13l18.87-18.92q2.37-2.41 4.24-4.6 1.87-2.2 3.12-4.35 1.24-2.15 1.91-4.36.67-2.22.67-4.67 0-2.23-.65-3.93-.64-1.7-1.82-2.86-1.19-1.16-2.84-1.74-1.66-.58-3.72-.58-1.89 0-3.51.54-1.61.53-2.86 1.5-1.24.97-2.1 2.26-.86 1.29-1.29 2.84-.73 1.97-1.9 2.62-1.16.64-3.35.3l-5.59-.99q.65-4.47 2.49-7.85 1.85-3.37 4.63-5.63 2.77-2.26 6.36-3.4 3.59-1.14 7.72-1.14 4.3 0 7.87 1.27 3.57 1.27 6.1 3.59 2.54 2.32 3.96 5.59t1.42 7.27q0 3.44-1.01 6.36-1.01 2.93-2.71 5.59-1.7 2.67-3.98 5.16-2.28 2.5-4.77 5.08l-14.02 14.32q2.02-.61 4.02-.93 2-.32 3.81-.32Zm35.34-13.55h18.92v-20.33q0-2.89.39-6.37l-19.31 26.7Zm28.17 0h7.82v6.15q0 .86-.55 1.49-.56.62-1.6.62h-5.67v15.18h-9.25v-15.18h-26.23q-1.07 0-1.89-.67-.82-.66-1.03-1.65l-1.12-5.38 29.46-39.34h10.06v38.78Z"/></svg>